# xmcd
#
# Track frame offsets:
#	150
#	22884
#	40636
#	52963
#	71595
#	93217
#	115072
#	140884
#	170038
#	190460
#
# Disc length: 2805 seconds
#
# Revision: 1
# Processed by: cddbd v1.5PL3 Copyright (c) Steve Scherf et al.
# Submitted via: CDex 1.50Beta5
#
DISCID=850af30a
DTITLE=くず - くずアルバム
DYEAR=2003
DGENRE=Pop
TTITLE0=ムーンライト
TTITLE1=風が吹いてる
TTITLE2=お前からの手紙
TTITLE3=赤とんぼ
TTITLE4=サンタになれなかった夜〜くずなクリスマス〜
TTITLE5=明日は晴れ
TTITLE6=あの頃のままで
TTITLE7=恋なんて
TTITLE8=虹がかかってた
TTITLE9=生きてることってすばらしい
EXTD=
EXTT0=
EXTT1=
EXTT2=
EXTT3=
EXTT4=
EXTT5=
EXTT6=
EXTT7=
EXTT8=
EXTT9=
PLAYORDER=
